#N canvas 842 116 588 418 8;
#X obj 15 4 py4pd -lib orchidea;
#X obj 14 46 orchidea.config;
#X msg 14 24 /home/neimog/Onedrive/Documents/MusicData/Samples/OrchideaSOL2020, f 66;
#X obj 15 89 else/keyboard 17 80 1 4 0 0 empty empty;
#X obj 15 173 stripnote;
#X msg 24 223 sharp;
#X obj 15 312 list;
#X obj 15 354 readsf~;
#X obj 15 384 dac~;
#X msg 15 333 open \$1 \, 1;
#X obj 15 254 else/pitch2note sharp;
#X msg 128 253 doc;
#X obj 15 291 orchidea.flute C4 p 1;
#X text 126 288 Note \, dynamics \, technique number.;
#X text 150 253 <= See the techniques numbers.;
#X text 355 22 <= Where is the folder of orchideaSol.;
#X text 97 46 FIRST CLEAR HERE \, RESTART PD;
#X obj 24 201 loadbang;
#X connect 2 0 1 0;
#X connect 3 0 4 0;
#X connect 4 0 10 0;
#X connect 5 0 10 0;
#X connect 6 0 9 0;
#X connect 7 0 8 0;
#X connect 7 0 8 1;
#X connect 9 0 7 0;
#X connect 10 0 12 0;
#X connect 11 0 12 0;
#X connect 12 0 6 0;
#X connect 17 0 5 0;
