#N canvas 842 116 945 768 8;
#X obj 15 4 py4pd -lib orchidea;
#X obj 14 46 orchidea.config;
#X msg 14 24 /home/neimog/Onedrive/Documents/MusicData/Samples/OrchideaSOL2020, f 66;
#X obj 15 73 else/keyboard 17 80 2 4 0 0 empty empty;
#X obj 15 170 stripnote;
#X msg 70 170 sharp;
#X obj 15 240 list;
#X obj 15 282 readsf~;
#X obj 15 322 dac~;
#X msg 15 261 open \$1 \, 1;
#X obj 15 199 else/pitch2note sharp;
#X obj 15 219 orchidea.flute C4 mf 2;
#X connect 2 0 1 0;
#X connect 3 0 4 0;
#X connect 4 0 10 0;
#X connect 5 0 10 0;
#X connect 6 0 9 0;
#X connect 7 0 8 0;
#X connect 7 0 8 1;
#X connect 9 0 7 0;
#X connect 10 0 11 0;
#X connect 11 0 6 0;
