#N canvas 394 118 1132 826 10;
#X obj 150 16 py4pd -lib py4pd;
#X msg 42 98 get keys;
#X msg 276 194 sample;
#X msg 54 198 set inst Vn;
#X msg 22 320 1;
#X obj 22 360 readsf~;
#X obj 145 323 else/format open %s;
#X obj 22 298 t b a, f 21;
#X obj 22 384 dac~;
#X obj 322 170 pack f s s;
#X obj 276 74 nbx 3 32 -1e+37 1e+37 0 0 empty empty empty 0 -9 0 20 #fcfcfc #000000 #000000 0 256;
#X msg 322 193 set midi \$1 \, set tech \$2 \, set dyn \$3;
#X obj 276 145 t b f;
#X msg 34 78 get mute;
#X msg 64 219 set mute N;
#X msg 350 119 symbol sfz;
#X msg 379 141 symbol fp;
#X obj 22 16 py4pd -lib orchidea;
#X obj 22 274 orchidea, f 17;
#X msg 22 41 set path <PATH_TO_ORCHIDEA/SAMPLES>;
#X text 354 80 MIDI value;
#X connect 1 0 18 0;
#X connect 2 0 18 0;
#X connect 3 0 18 0;
#X connect 4 0 5 0;
#X connect 5 0 8 0;
#X connect 5 0 8 1;
#X connect 6 0 5 0;
#X connect 7 0 4 0;
#X connect 7 1 6 0;
#X connect 9 0 11 0;
#X connect 10 0 12 0;
#X connect 11 0 18 0;
#X connect 12 0 2 0;
#X connect 12 1 9 0;
#X connect 13 0 18 0;
#X connect 14 0 18 0;
#X connect 15 0 9 1;
#X connect 16 0 9 2;
#X connect 18 0 7 0;
#X connect 19 0 18 0;
